<svg xmlns="http://www.w3.org/2000/svg" viewBox="0 0 520 720">
<defs>
<linearGradient id="bg" x1="0" x2="1" y1="0" y2="1"><stop stop-color="#070914"/><stop offset="1" stop-color="#38bdf8"/></linearGradient>
<linearGradient id="suit" x1="0" x2="1"><stop stop-color="#0f172a"/><stop offset="1" stop-color="#38bdf8"/></linearGradient>
</defs>
<rect width="520" height="720" rx="42" fill="url(#bg)"/>
<circle cx="260" cy="155" r="90" fill="#ffd7c2"/>
<path d="M150 155c12-92 202-116 230 5-28-52-76-64-120-64-43 0-84 13-110 59z" fill="#111827"/>
<path d="M168 156c22-74 160-84 188-2 10 30 0 64-18 86-25 30-132 30-157-2-18-23-25-52-13-82z" fill="#111827" opacity=".72"/>
<circle cx="226" cy="166" r="9" fill="#0f172a"/><circle cx="294" cy="166" r="9" fill="#0f172a"/>
<path d="M228 212c25 20 48 20 72 0" fill="none" stroke="#b45309" stroke-width="5" stroke-linecap="round"/>
<path d="M178 330c18-70 56-106 82-106s64 36 82 106l34 164H144l34-164z" fill="url(#suit)" stroke="#e0f2fe" stroke-opacity=".22" stroke-width="4"/>
<path d="M190 332h140l-20 118H210l-20-118z" fill="#020617" opacity=".72"/>
<path d="M126 346c-52 66-64 154-44 205h70l28-202-54-3zM394 346c52 66 64 154 44 205h-70l-28-202 54-3z" fill="#ffd7c2"/>
<path d="M158 548h204l36 122H122l36-122z" fill="#0f172a"/>
<path d="M132 608h256" stroke="#38bdf8" stroke-width="8" opacity=".75"/>
<circle cx="142" cy="112" r="16" fill="#38bdf8"/><circle cx="378" cy="112" r="16" fill="#38bdf8"/>
<path d="M126 112C144 62 196 34 260 34s116 28 134 78" fill="none" stroke="#38bdf8" stroke-width="7" opacity=".75"/>
<text x="260" y="682" text-anchor="middle" fill="#e0f2fe" font-family="Arial" font-size="30" font-weight="800">Aurora Operator</text>
</svg>